<svg xmlns="http://www.w3.org/2000/svg" viewBox="0 0 155 194">
  <g fill="none" fill-rule="evenodd">
    <path fill="#DDDFE4" d="M77.5 186.1c50.92-29.17 77-34.45 77-76.95S129.96 59.5 87.44 59.5C44.9 59.5.5 66.65.5 109.15s26.08 106.12 77 76.95z"/>
    <path fill="#FFF" fill-rule="nonzero" d="M65.61 73.92l41.4 3.34c15.42 1.13 19.88 10.94 20.43 12.3l.06.16s9 25.28 10.98 38.14c1.97 12.85 1.46 13.2 2.92 16.13.62 1.23.84 3.37.9 5.43l.27.83c.16.48.15.53-.07-.03a1.84 1.84 0 0 0-.19-.34v.47c.02 2.48-.18 4.64-.18 4.64l-.1-.36a17.98 17.98 0 0 0-4.64-7.46 80.06 80.06 0 0 0-11.57-2.58l-.51.13-.05-.21-1.05-.15.75-1.2-6.42-28.96c-.97 5.72-5.53 18.3-7 21.45l-.13.27c-1.47 2.94-8.05 30.07-8.05 30.07l-1.25.08c-4.5.26-20.22.93-31.99-1.46l-.42-.09a28.9 28.9 0 0 0-23.41 5.14l.04-.23c.1-.85.36-4.05-1.39-8.3l-.11-.27c-1.1-2.58-5.88-18.77-10.1-35.5l-3.94 17.8.75 1.2-1.04.15-.05.21-.51-.13-1.15.18a75.65 75.65 0 0 0-10.43 2.4A31.1 31.1 0 0 0 12.5 155l3.3-21.9a5152.78 5152.78 0 0 0 12.08-42.02c-.13-1.87-.1-3.33.12-4.29 2.2-9.53 37.61-12.87 37.61-12.87z"/>
    <path fill="#768195" d="M41.5 192c-1.67-3.34-2.36-15.35 4.33-22.03 10.03-10 38.45-3.33 57.68-5 0 2.5.99 5.03.99 7.03-38 25-52.13 21.67-63 20z"/>
    <g transform="translate(53.32 72.57)">
      <path stroke="#171717" stroke-linecap="round" stroke-width="2" d="M3.35 26.02c.43-19.8 8.87-28.3 25.34-25.5 13.75 2.33 13.9 17.6 12.35 31.02M26.77 50.46c3.13-12.3 7.6-18.2 13.38-17.7 5.79.5 8.85 6.64 9.2 18.44"/>
      <ellipse cx="3.35" cy="30.21" stroke="#171717" stroke-width="4" rx="3.35" ry="3.35"/>
      <ellipse cx="26.35" cy="51.62" fill="#171717" rx="2.09" ry="2.1"/>
      <ellipse cx="49.77" cy="51.62" fill="#171717" rx="2.09" ry="2.1"/>
    </g>
    <g fill-rule="nonzero" transform="translate(44.12 .5)">
      <path fill="#FFCAB8" d="M17.57 61.13s8.8 13.59 5.66 17.27c-1.51 1.76 4.21 12.49 10.23 12.99 6.5.54 13.38-9.22 13.38-9.22s-4.02-19.77-2.83-24.32l-26.44 3.28z"/>
      <ellipse cx="31.79" cy="37.73" fill="#2F2E41" rx="27.6" ry="27.67"/>
      <ellipse cx="29.53" cy="46.53" fill="#FFCAB8" rx="20.49" ry="20.54"/>
      <ellipse cx="36.81" cy="7.55" fill="#2F2E41" rx="7.53" ry="7.55"/>
      <path fill="#2F2E41" d="M34.2 14.93S26.36 28 8.14 32.89c-18.23 4.9-.15 32.35-.15 32.35s-6.57-9.99 2.9-20.56c9.49-10.57 24.75-17.8 23.31-29.75z"/>
    </g>
    <path fill="#FFF" stroke="#768195" stroke-opacity=".24" stroke-width="1.5" d="M62.53 74.28l-6.7 13.42 9.97-3.56 10.11 24.52L87.62 87.7l12.55 3.35-5.02-17.61-5.02-.84-13.38 16.77L66.9 72.8z"/>
    <path stroke="#DDE0E5" stroke-linecap="round" stroke-width="1.5" d="M76.5 90l-.5 18.5"/>
    <path fill="#FFCAB8" fill-rule="nonzero" d="M21.67 164.52c10.24 0 24.87-13.93 24.87-13.93s7.32-2.93 11.7-2.2c4.4.73 28.54 0 18.3-12.47-10.24-12.46-27.8 0-27.8 0l-18.3 8.8c-12.67 13.2-15.6 19.8-8.77 19.8z"/>
    <path fill="#FFCAB8" fill-rule="nonzero" d="M134.09 164.52c-10.25 0-24.88-13.93-24.88-13.93s-7.32-2.93-11.7-2.2c-4.4.73-28.54 0-18.3-12.47 10.25-12.46 27.8 0 27.8 0l18.3 8.8c12.68 13.2 15.6 19.8 8.78 19.8z"/>
    <path fill="#FFF" d="M37.5 141l-24 4-1.11 12.76a7 7 0 0 0 8.96 7.32L38.5 160a69.25 69.25 0 0 1-2-10c-.12-1.26-.12-2.13 0-8 0-.07.33-.4 1-1z"/>
    <path stroke="#DDE0E5" stroke-linecap="round" d="M29.5 142c-1.39.5-5 2-9 5m94.49-42.63c.07 1.36.56 5.18 3.02 11.26"/>
    <path fill="#FFF" d="M134.5 144l8 1 1.11 12.76c.33 3.85-2.58 6.87-6.37 7.58-5.74 1.1-14.48-2.56-26.21-10.96a2 2 0 0 1-.73-1l-.8-2.38c.13-.5 1.34 1.4 2 1 2.36-1.43 2-8.7 2-10 0-3-2-4-2-4s0-1 1-1c.67 0 8 2.33 22 7z"/>
    <path stroke="#DDE0E5" stroke-linecap="round" d="M136.66 146.76a54.99 54.99 0 0 0-11.43-6.18"/>
  </g>
</svg>
