<svg xmlns="http://www.w3.org/2000/svg" xmlns:xlink="http://www.w3.org/1999/xlink" viewBox="0 0 40 40">
  <defs>
    <circle id="patients-a" cx="20" cy="20" r="20"/>
    <path id="patients-c" d="M17.03.17c14.43 0 18.07 5.9 18.44 10.42-11.89 8.73-23.71 8.73-35.47 0C1.74 3.64 7.41.17 17.03.17z"/>
  </defs>
  <g fill="none" fill-rule="evenodd">
    <path fill="#FFF" d="M0 0h40v40H0z"/>
    <mask id="patients-b" fill="#fff">
      <use xlink:href="#patients-a"/>
    </mask>
    <use fill="#DDDFE4" xlink:href="#patients-a"/>
    <g mask="url(#patients-b)">
      <g transform="translate(2.16 24.86)">
        <mask id="patients-d" fill="#fff">
          <use xlink:href="#patients-c"/>
        </mask>
        <use fill="#768195" opacity=".61" xlink:href="#patients-c"/>
        <path fill="#FFF" d="M9.5-8.84h16.28v8.07a8.14 8.14 0 0 1-16.29 0v-8.07z" mask="url(#patients-d)" opacity=".55"/>
      </g>
    </g>
    <path fill="#FFCAB8" d="M14.05 18.38h11.9v4.86a5.95 5.95 0 1 1-11.9 0v-4.86z" mask="url(#patients-b)"/>
    <path fill="#F8B6C2" d="M19.58 25.95c3.69-1.89-4.44-6.48-4.44-5.18 0 2.07 1.41 5.18 4.44 5.18z" mask="url(#patients-b)" opacity=".55"/>
    <path fill="#FFCAB8" d="M20.5 23.78c3.15 0 5.85-2.62 6.9-6.31.75.22 2.38-3.42 1.57-3.77-.8-.34-1.48-1.35-1.52-1.76-.47-4.78-3.21-7.62-6.96-7.62-3.82 0-6.96 3.85-7.33 8.77-.02.31-2.14-1.5-.85 2.72.79 2.6.97.53 1.26 1.57 1.02 3.73 3.74 6.4 6.92 6.4z" mask="url(#patients-b)"/>
    <path fill="#222" d="M25.21 3.94c-4.48-4.11-10.46-.1-12.3 2.11-1.23 1.48-1.34 4-.35 7.56l.7.44c.22-2 .6-3.63 1.14-4.89 3.37 1.7 6.86 1.34 10.47-1.1 0 2.29 1 4.29 2.98 6C30.5 7.38 29 4.38 25.21 3.93z" mask="url(#patients-b)"/>
  </g>
</svg>
